<svg width="2500" height="590" viewBox="0 0 2500 590" fill="none" xmlns="http://www.w3.org/2000/svg">
<path d="M1126.13 145.344V2.78258L992.464 20.1656V145.344H940.445V263.307H992.464V584.804H1126.13V263.307H1223.04V145.344H1126.13ZM395.599 356.934C436.317 323.977 462.449 278.887 462.449 222.288V197.67C462.449 98.2818 382.156 25.2582 283.149 25.2582L0 24.1552L0.169607 581.848L133.908 582.906V393.616H271.371L360.98 582.906H517.502L395.599 356.934ZM325.79 215.526C325.79 255.1 293.803 277.563 254.36 277.563H133.914V143.636H254.36C293.803 143.636 325.79 171.438 325.79 211.025V215.526ZM1898.06 143.012H1827.29V0.570312L1696.53 17.947L1696.5 582.906H1898.06C1997.12 582.906 2077.38 506.618 2077.38 407.274V322.924C2077.38 223.568 1997.12 143.012 1898.06 143.012ZM1949.24 395.986C1949.24 437.83 1921.1 462.656 1879.41 462.656H1827.73V263.351H1879.41C1921.1 263.351 1949.24 288.202 1949.24 330.04V395.986ZM1508.89 145.344V399.131C1508.89 440.956 1493.73 469.23 1452.02 469.23H1449.95C1408.28 469.23 1393.08 440.956 1393.08 399.131V145.344H1261.14V408.818C1261.14 508.187 1304.48 588.755 1436.2 588.755H1461.5C1600.23 588.755 1640.85 508.187 1640.85 408.818V145.344H1508.89ZM765.241 145.344V399.131C765.241 440.956 750.065 469.23 708.366 469.23H706.3C664.627 469.23 649.437 440.956 649.437 399.131V145.344H517.502V408.818C517.502 508.187 560.821 588.755 692.536 588.755H717.858C856.553 588.755 897.189 508.187 897.189 408.818V145.344H765.241ZM2412.07 435.573C2412.07 435.573 2373.47 483.033 2305.61 477.714C2263.32 474.411 2238.25 452.855 2238.25 411.03V396.452H2497.08V321.141C2497.08 224.236 2426.31 139.231 2305.93 139.231C2185.59 139.231 2114.65 219.963 2114.65 316.874V407.463C2114.65 504.431 2185.44 589.43 2305.8 589.43C2441.84 589.43 2500 494.233 2500 494.233L2412.07 435.573ZM2238.25 296.339C2238.25 255.498 2264.2 230.911 2302.83 229.776H2306.16C2346.37 229.776 2373.51 254.621 2373.51 296.44V300.134H2238.25V296.339Z" fill="inherit"/>
</svg>
