<svg width="216" height="160" viewBox="0 0 216 160" fill="none" xmlns="http://www.w3.org/2000/svg">
<path d="M107.266 0C74.1796 0 43.1099 2.5 26.5668 5.99609C15.5446 8.49609 6.01033 15.9961 4.01341 27.5C2.0165 39.4922 0 57.5 0 80C0 102.5 1.99692 120 4.50286 132.5C6.51935 143.496 16.0341 151.504 27.0563 154.004C44.6174 157.5 74.6691 160 107.755 160C140.841 160 170.893 157.5 188.435 154.004C199.476 151.504 208.991 144.004 210.988 132.5C213.005 120 215.511 102.012 216 79.5117C216 57.0117 213.494 39.0039 210.988 26.5039C208.991 15.5078 199.476 7.5 188.435 5C170.893 2.5 140.332 0 107.266 0ZM107.266 15.9961C143.347 15.9961 169.463 18 183.5 20.5C191.018 22.5117 195.002 25.4961 196 32C199.015 47.9961 200 62.0117 200 79.5117C199.511 100.996 198.017 115.5 196 128C194.512 137.492 186.515 138.484 183.5 139.5C165.449 142.996 137.337 145 107.266 145C77.1946 145 49.5416 143.484 32 139.5C24.4822 137.488 19.9985 132.004 19 125.5C14.9866 111.496 15.5 98.0078 15.5 79.5117C15.5 56.5039 17.0031 42.4883 19 32C20.5075 22.4883 27.9941 21.4961 30.5 20.5C47.0431 17.0039 75.6871 15.9961 107.266 15.9961ZM80.19 40V120L150.356 80L80.19 40ZM94 62.5L124 80L94 95.5L94 62.5Z" fill="inherit"/>
</svg>
