<svg width="140" height="140" viewBox="0 0 140 140" fill="none" xmlns="http://www.w3.org/2000/svg">
<path d="M52.3333 125L92.6666 125" stroke="inherit" stroke-width="5" stroke-linecap="round"/>
<path d="M51.7874 125C51.7874 122.25 51.7874 124.53 51.7874 118.681C38.1781 120.753 33.5212 115.443 30.6292 112.306C27.3485 108.747 25.4194 105.088 22.0699 99.7143C18.7203 94.3408 12.6599 95.6051 12.022 92.4965C11.384 89.3878 24.7806 90.2307 34.4032 101.979C41.3678 110.531 48.8018 107.955 52.797 105.509C52.9692 103.725 53.3806 101.971 54.0202 100.293C54.8427 98.1381 57.1035 96.8341 56.7488 95.359C56.3941 93.8839 38.2028 94.8726 27.8291 80.4673C20.3364 70.0624 20.0642 57.7466 23.0089 48.5774C24.9839 42.4267 28.2791 38.089 30.5221 35.5822C29.121 32.6109 28.3721 29.3788 28.325 26.0995C28.2801 22.607 29.0311 19.1494 30.5221 15.9845C38.6876 16.2241 46.5812 18.9461 53.133 23.7815C58.9177 21.8555 64.9645 20.8132 71.0658 20.6905C77.9003 20.5573 84.7079 21.5787 91.1964 23.7107C94.4721 20.8069 98.2719 18.5428 102.396 17.0373C105.54 15.8944 108.835 15.2081 112.178 15C113.886 18.2074 114.809 21.7684 114.871 25.3948C114.923 28.7818 114.222 32.1386 112.816 35.2265C115.255 38.1421 119.106 43.5503 120.899 51.2376C121.537 53.9762 125.03 68.9228 114.948 81.7848C104.394 95.2494 86.8278 93.1843 86.0351 95.0438C85.2424 96.9032 89.4068 100.352 91.3648 107.584C93.3229 114.816 92.805 125 92.805 125" stroke="inherit" stroke-width="5" stroke-miterlimit="10" stroke-linecap="round" stroke-linejoin="round"/>
</svg>
