<svg width="140" height="140" viewBox="0 0 140 140" fill="none" xmlns="http://www.w3.org/2000/svg">
  <path d="M137.5 26.1111C137.5 30.8266 133.598 34.7222 128.698 34.7222C123.793 34.7222 119.891 30.826 119.891 26.1111C119.891 21.3963 123.793 17.5 128.698 17.5C133.598 17.5 137.5 21.3956 137.5 26.1111Z" stroke="inherit" stroke-width="5"/>
  <path d="M31.8712 86.4996H30.4582V87.8884V113.611H11.4131V33.0557H88.5794C93.3176 33.0557 97.104 33.5436 100.087 34.3704C103.016 35.3054 105.441 36.6938 107.632 38.6609C109.703 40.7604 111.142 43.0648 111.983 45.7004C112.844 48.3987 113.359 51.9971 113.359 56.6546V62.9012C113.359 70.7923 111.926 76.419 109.323 79.8051C106.736 83.1696 102.417 85.4257 96.0889 86.3918L93.7449 86.7496L95.1811 88.6051L114.54 113.611H93.6409L74.9413 87.0973L74.5196 86.4996H73.7797H31.8712ZM30.4582 69.5229V70.9118H31.8712H85.0434C86.5989 70.9118 87.9774 70.8157 89.135 70.5879C90.2728 70.3639 91.3275 69.9879 92.1131 69.3322C93.6138 68.0797 94.3141 65.9652 94.3141 63.2762V56.2796C94.3141 53.701 93.6059 51.5946 92.1137 50.3483C91.3523 49.7129 90.3242 49.2994 89.1757 49.0385C88.0108 48.7738 86.6215 48.6436 85.0434 48.6436H31.8712H30.4582V50.0324V69.5229Z" stroke="inherit" stroke-width="5"/>
</svg>
