<svg width="140" height="140" viewBox="0 0 140 140" fill="none" xmlns="http://www.w3.org/2000/svg">
  <path d="M54 130H98" stroke="inherit" stroke-width="5" stroke-linecap="round"/>
  <path d="M53.4044 130C53.4044 127 53.4044 129.487 53.4044 123.106C38.5579 125.367 33.4777 119.574 30.3228 116.152C26.7439 112.269 24.6394 108.278 20.9853 102.416C17.3312 96.5536 10.7199 97.9329 10.024 94.5416C9.32803 91.1504 23.9425 92.0699 34.4399 104.886C42.0376 114.216 50.1475 111.405 54.5058 108.737C54.6937 106.79 55.1424 104.877 55.8402 103.047C56.7374 100.696 59.2038 99.2736 58.8169 97.6644C58.4299 96.0552 38.5849 97.1338 27.2681 81.4188C19.0942 70.068 18.7973 56.6326 22.0097 46.6299C24.1643 39.92 27.759 35.188 30.2059 32.4533C28.6774 29.2119 27.8605 25.686 27.8091 22.1085C27.7601 18.2985 28.5794 14.5266 30.2059 11.074C39.1137 11.3354 47.725 14.3048 54.8724 19.5798C61.183 17.4787 67.7795 16.3417 74.4354 16.2078C81.8913 16.0626 89.3177 17.1767 96.3961 19.5025C99.9695 16.3348 104.115 13.8648 108.614 12.2225C112.044 10.9757 115.638 10.2271 119.285 10C121.149 13.499 122.156 17.3837 122.223 21.3398C122.28 25.0347 121.515 28.6967 119.982 32.0653C122.642 35.246 126.842 41.1457 128.799 49.532C129.495 52.5195 133.305 68.8248 122.307 82.8561C110.793 97.5448 91.6304 95.292 90.7656 97.3205C89.9008 99.349 94.4438 103.111 96.5798 111C98.7158 118.89 98.1509 130 98.1509 130" stroke="inherit" stroke-width="5" stroke-miterlimit="10" stroke-linecap="round" stroke-linejoin="round"/>
</svg>
