<svg width="23" height="18" viewBox="0 0 23 18" fill="none" xmlns="http://www.w3.org/2000/svg">
<path d="M21.0004 4C22.1044 4 23 3.10457 23 2C23 0.895433 22.1044 0 21.0004 0C19.8956 0 19 0.895433 19 2C19 3.10457 19.8956 4 21.0004 4Z" fill="#F41240"/>
<path d="M3.86952 12.8699H3.61952V13.1199V17.75H0.25V3.25H13.9025C14.7408 3.25 15.4107 3.33783 15.9384 3.48666C16.4567 3.65495 16.8857 3.90486 17.2734 4.25894C17.6398 4.63686 17.8944 5.05165 18.0432 5.52606L18.0432 5.52609C18.1955 6.01178 18.2866 6.65945 18.2866 7.4978V8.6222C18.2866 10.0426 18.0331 11.0554 17.5725 11.6649C17.1149 12.2705 16.3507 12.6766 15.2311 12.8505L14.8164 12.9149L15.0705 13.2489L18.4956 17.75H14.798L11.4896 12.9775L11.415 12.8699H11.2841H3.86952ZM3.61952 9.8141V10.0641H3.86952H13.2769C13.5521 10.0641 13.796 10.0468 14.0008 10.0058C14.2021 9.96548 14.3887 9.8978 14.5277 9.77978L14.5277 9.77974C14.7932 9.55429 14.9171 9.17372 14.9171 8.6897V7.4303C14.9171 6.96616 14.7918 6.58701 14.5278 6.36268L14.5277 6.36263C14.393 6.24826 14.2112 6.17388 14.008 6.12691C13.8019 6.07927 13.5561 6.05582 13.2769 6.05582H3.86952H3.61952V6.30582V9.8141Z" fill="inherit" stroke="transparent" stroke-width="0.5"/>
</svg>
